<svg xmlns="http://www.w3.org/2000/svg" width="256" height="256"><path fill-opacity=".016" d="M0 128.004v128.004l128.25-.254 128.25-.254.254-127.75L257.008 0H0v128.004m.485.496c0 70.4.119 99.053.265 63.672.146-35.38.146-92.98 0-128C.604 29.153.485 58.1.485 128.5" fill="#212121" fill-rule="evenodd"/><path fill-opacity=".263" d="M80.025 46.975c-2.665 2.665-3.257 5.551-2.861 13.936l.336 7.094-4.25-.003L69 68v-4.864c0-3.91-.512-5.375-2.612-7.475-3.311-3.311-7.087-4-19.051-3.477-9.316.408-9.677.513-12.465 3.634C32.634 58.322 32 60 32 63.419v4.388l-9.583.346c-9.379.34-9.646.417-12.5 3.613L7 75.032v130.122l2.923 2.923L12.846 211h230.308l2.923-2.923 2.923-2.923v-23.542c0-22.518-.087-23.588-2-24.612-1.45-.776-2-2.094-2-4.795 0-2.641.582-4.087 2-4.973 1.939-1.211 2-2.332 2-36.725V75.032l-2.868-3.21c-2.574-2.881-3.55-3.254-9.5-3.633L230 67.767v-4.696c0-3.935-.497-5.174-3.064-7.634l-3.063-2.937-16.159-.342c-10.251-.217-17.556.077-19.984.805-4.63 1.387-7.721 5.902-7.726 11.287L180 68h-22.345c-20.752 0-22.469.137-24.08 1.917-1.381 1.526-1.508 2.34-.624 3.991 1.099 2.054 1.628 2.077 54.33 2.333l53.219.259.277 14.75.276 14.75-44.276-.001c-43.439 0-44.381-.042-49.777-2.223-4.74-1.915-7.366-2.222-19-2.222s-14.26.307-19 2.222c-5.396 2.181-6.338 2.223-49.777 2.223L14.947 106l.276-14.75.277-14.75 53.219-.259c52.702-.256 53.231-.279 54.33-2.333.884-1.651.757-2.465-.624-3.991-1.446-1.598-3.126-1.917-10.08-1.917H104v-9.326c0-8.455-.216-9.528-2.314-11.5-2.01-1.888-3.459-2.174-11-2.174-7.315 0-8.998.312-10.661 1.975m13.302 5.721c-1.961.382-2.205 1.15-2.5 7.866l-.327 7.443 2.75-.003L96 68v-8c0-4.4-.112-7.939-.25-7.864-.138.075-1.228.327-2.423.56M50.833 63.95 50.447 68h11.238l-.605-3.75c-.588-3.649-.73-3.758-5.232-4.05l-4.628-.301-.387 4.051m147.999.018L198.447 68h23.674l-.311-3.75-.31-3.75-11.142-.282-11.142-.281-.384 4.031m-155.07 3.739c1.244.239 3.044.23 4-.02s-.062-.446-2.262-.435c-2.2.011-2.982.216-1.738.455m148.488-.018c.963.252 2.537.252 3.5 0 .963-.251.175-.457-1.75-.457s-2.713.206-1.75.457M23 82c-1.619 1.619-2 3.333-2 9 0 9.652 1.401 11 11.427 11 6.833 0 7.594-.211 9.5-2.635 3.162-4.019 2.946-13.583-.382-16.91-2.141-2.142-3.353-2.455-9.5-2.455-5.712 0-7.423.378-9.045 2m170 0c-1.642 1.642-2 3.333-2 9.443 0 10.623-.141 10.557 22.612 10.557 15.819 0 18.443-.226 20.308-1.75 3.96-3.236 3.975-14.355.024-18.306C232.159 80.159 230.49 80 213.5 80c-17.167 0-18.644.144-20.5 2M51.596 88.547c-.878.878-1.596 2.184-1.596 2.902 0 3.127 2.721 3.602 19.025 3.326 14.214-.24 16.398-.495 17.362-2.025.804-1.275.804-2.225 0-3.5-.963-1.528-3.137-1.785-17.149-2.024-13.606-.233-16.289-.032-17.642 1.321M15 199.392v3.299l12.75.651c7.013.357 25.958.652 42.1.654l29.351.004-5.351-4.021-5.35-4.021-36.75.067-36.75.067v3.3m147.108.619-5.338 4.011 41.865-.261 41.865-.261.31-3.75.311-3.75H167.446l-5.338 4.011" fill="#212121" fill-rule="evenodd"/><path fill-opacity=".394" d="M80.671 47.045c-2.437 1.916-2.618 2.652-2.885 11.75L77.5 68.5l-4.25.307-4.25.308v-5.134c0-4.342-.451-5.586-2.923-8.058C63.157 53.004 63.139 53 50.633 53c-11.672 0-12.705.158-15.231 2.331-2.197 1.889-2.798 3.402-3.18 8L31.752 69h-9.32c-8.41 0-9.594.236-12.126 2.413L7.5 73.826l-.272 64.327c-.199 47.158.039 65.077.891 67.134C10.607 211.293 4.463 211 128 211c122.897 0 117.193.26 119.805-5.472 1.254-2.752 1.769-43.868.588-46.946-.715-1.864-4.479-2.096-6.193-.382-.825.825-1.2 5.822-1.2 16V189h-33.583c-18.471 0-33.43-.338-33.243-.75.187-.412 1.805-3.559 3.594-6.993 10.684-20.499 7.439-45.585-8.009-61.918L164.71 114H241v15.345c0 13.676.202 15.528 1.855 17.024 2.249 2.035 4.963 1.211 5.696-1.729.293-1.177.402-17.592.241-36.478l-.292-34.337-2.806-2.413c-2.338-2.01-3.88-2.412-9.25-2.412H230v-5.077c0-4.278-.46-5.537-2.923-8L224.154 53h-18.5c-18.365 0-18.523.019-21.527 2.546-2.543 2.14-3.074 3.377-3.326 7.75L180.5 68.5 157 69c-22.881.487-23.508.555-23.798 2.588-.164 1.148.327 2.606 1.091 3.241 1.003.832 16.141 1.225 54.299 1.412l52.908.259.277 14.75.276 14.75h-45.058c-43.948 0-45.211-.054-51.277-2.211-5.041-1.792-8.394-2.21-17.718-2.21s-12.677.418-17.718 2.21c-6.065 2.156-7.33 2.211-51.25 2.211H14V92.582c0-7.38.273-14.13.607-15C15.15 76.167 20.787 76 67.985 76c56.244 0 55.744.043 54.836-4.702-.296-1.55-1.616-1.838-9.582-2.086L104 68.925v-9.508c0-8.761-.193-9.701-2.455-11.962C99.353 45.262 98.246 45 91.18 45c-6.454 0-8.389.377-10.509 2.045M85 59.871v7.871l5.033.668c2.768.367 5.468.399 6 .07S97 64.309 97 59.941V52H85v7.871m-45.561 2.516C38.07 67.841 38.6 68.126 50.5 68.32l11 .18v-8l-10.723-.284c-10.651-.281-10.726-.267-11.338 2.171m149.251-1.744c-.38.38-.689 2.303-.687 4.274l.003 3.583H222.5v-8l-16.56-.273c-9.108-.151-16.871.037-17.25.416M23.564 82.345C21.373 84.536 21 85.796 21 91c0 5.134.386 6.477 2.455 8.545 2.097 2.098 3.39 2.455 8.889 2.455 9.43 0 11.156-1.683 11.156-10.876 0-9.231-1.139-10.425-10.439-10.951-6.372-.36-7.141-.184-9.497 2.172m170.071-.272C191.246 83.951 191 84.786 191 91c0 6.214.246 7.049 2.635 8.927 2.44 1.92 3.942 2.073 20.326 2.073 17.199 0 17.751-.064 19.865-2.314 1.78-1.895 2.174-3.514 2.174-8.928 0-5.953-.263-6.82-2.635-8.685C230.931 80.158 229.417 80 213.5 80c-15.917 0-17.431.158-19.865 2.073M29 91.5c0 3.333.167 3.5 3.5 3.5s3.5-.167 3.5-3.5-.167-3.5-3.5-3.5-3.5.167-3.5 3.5m22.309-1.864c-.345.9-.17 2.362.389 3.25.851 1.351 3.532 1.659 16.435 1.888 16.891.301 19.751-.413 18.422-4.6C85.883 88.055 85.439 88 68.901 88c-14.783 0-17.044.21-17.592 1.636M15 151.5V189h33.583c18.471 0 33.43-.338 33.243-.75-.187-.412-1.805-3.559-3.594-6.993-10.684-20.499-7.439-45.585 8.009-61.918L91.29 114H15v37.5m106.223-27.438C106.398 126.984 95 140.866 95 156c0 20.914 20.567 36.813 40.887 31.608 15.461-3.962 25.093-16.094 25.093-31.608 0-15.345-9.585-27.578-24.691-31.513-6.246-1.627-8.627-1.694-15.066-.425m-.475 11.305c-12.79 4.768-18.489 18.273-12.731 30.169 7.279 15.035 29.438 16.311 38.755 2.232 2.373-3.586 2.728-5.116 2.728-11.768 0-6.652-.355-8.182-2.728-11.768-5.317-8.034-17.301-12.117-26.024-8.865m-.449 8.593c-6.122 3.732-8.322 12.228-4.887 18.87 4.784 9.251 19.331 9.597 25.226.6 2.296-3.504 2.296-11.356 0-14.86-4.162-6.351-13.874-8.553-20.339-4.61M14 198.878c0 1.582.615 3.387 1.366 4.011.981.814 12.98 1.06 42.549.872l41.184-.261-5.024-3.75-5.023-3.75H14v2.878m147.704.936-4.796 3.686 41.18.261c29.567.188 41.565-.058 42.546-.872.751-.624 1.366-2.429 1.366-4.011V196l-37.75.064-37.75.063-4.796 3.687" fill="#212121" fill-rule="evenodd"/><path fill-opacity=".982" d="M82.315 46.007C78.872 47.394 78 50.209 78 59.934V69h-9v-3.953C69 55.286 65.407 53 50.065 53c-10.655 0-11.14.095-14.147 2.782-2.565 2.292-3.169 3.659-3.423 7.75l-.309 4.968-9.343.5c-9.5.508-13.117 1.666-14.225 4.554-.34.885-.618 30.969-.618 66.853v65.244l2.581 2.425 2.58 2.424h229.678l2.598-2.441 2.598-2.44-.268-24.06-.267-24.059h-5l-.275 15.75-.276 15.75h-68.708l4.399-8.75c5.632-11.201 7.267-20.636 5.543-32-1.509-9.952-7.376-22.098-14.166-29.331-2.759-2.938-5.017-5.473-5.017-5.631 0-.158 17.539-.288 38.976-.288h38.976l.274 16.75.274 16.75h5l.273-35.5c.192-24.996-.063-36.133-.86-37.64-1.596-3.013-5.135-4.36-11.46-4.36H230v-3.532c0-5.345-2.326-9.946-5.743-11.362-2.103-.871-8.249-1.144-20.712-.922l-17.723.316-2.411 2.806c-1.842 2.143-2.411 3.968-2.411 7.732v4.926l-23.75.268-23.75.268v5l52.908.259c37.046.181 53.311.593 54.25 1.372 1.013.84 1.342 4.767 1.342 15.991V107h-88.35l-7.575-2.67c-6.363-2.243-9.254-2.671-18.075-2.671s-11.712.428-18.075 2.671L102.35 107H14V92.122c0-11.224.329-15.151 1.342-15.991.939-.779 17.204-1.191 54.25-1.372L122.5 74.5V72c0-2.456-.167-2.509-9.5-3l-9.5-.5-.251-8.5c-.326-11.06-.699-12.429-3.772-13.829-2.971-1.353-13.949-1.458-17.162-.164M85 60.5V69h12V52H85v8.5m-39.5-.582-6 .582-.307 4.25-.308 4.25H62v-3.965c0-6.046-1.649-6.557-16.5-5.117m148.757-.178c-5.598.318-6.304.6-6.838 2.728-1.509 6.011-1.52 6.007 17.844 6.305l17.737.273v-3.988c0-2.919-.518-4.265-1.934-5.023-1.822-.975-12.733-1.095-26.809-.295M23.571 82.571c-1.944 1.944-2.233 15.367-.371 17.229.724.724 4.232 1.2 8.845 1.2C41.854 101 43 99.936 43 90.826 43 82.147 41.744 81 32.243 81c-5.121 0-7.538.438-8.672 1.571m169.944-.205c-2.666 1.949-3.402 12.632-1.112 16.127l1.643 2.507h19.42c18.935 0 19.46-.056 20.977-2.223C235.399 97.413 236 94.409 236 91s-.601-6.413-1.557-7.777C232.929 81.06 232.379 81 214.134 81c-14.27 0-19.198.326-20.619 1.366M28 90.943V95H37.121l-.311-3.75c-.301-3.64-.435-3.759-4.56-4.057L28 86.885v4.058m170.667-3.276c-.367.366-.667 2.166-.667 4V95h31v-8h-14.833c-8.159 0-15.134.3-15.5.667M51.371 89.476c-.322.838-.322 2.21 0 3.048.498 1.298 3.081 1.484 17.357 1.25L85.5 93.5v-5l-16.772-.274c-14.276-.234-16.859-.048-17.357 1.25M116 109.593c-24.44 6.492-40.191 29.846-36.188 53.657 4.575 27.213 31.227 45.309 58.389 39.645 17.745-3.701 32.707-17.925 37.266-35.43 8.99-34.516-24.543-67.15-59.467-57.872M14 151v38h68.759l-4.399-8.75c-5.632-11.201-7.267-20.636-5.543-32 1.509-9.952 7.376-22.098 14.166-29.331 2.759-2.938 5.017-5.473 5.017-5.631 0-.158-17.55-.288-39-.288H14v38m104.698-33.904c-20.402 4.801-34.553 25.451-30.9 45.091 3.244 17.448 16.085 30.088 33.615 33.091 26.467 4.533 51.289-19.473 46.755-45.217-4.033-22.894-27.061-38.239-49.47-32.965m-.854 7.239C102.801 129.951 94.513 141.2 94.513 156c0 12.806 6.072 22.786 17.702 29.092 5.906 3.202 6.858 3.407 15.785 3.392 7.866-.012 10.297-.409 14.136-2.306 7.474-3.694 12.488-8.669 16.072-15.949 2.841-5.772 3.291-7.716 3.285-14.208-.011-12.859-6.116-22.876-17.708-29.055-5.342-2.848-7.485-3.399-14.285-3.673-5.07-.205-9.339.176-11.656 1.042m.056 12.656c-12.36 6.533-15.622 22.423-6.69 32.595 4.551 5.183 9.602 7.414 16.79 7.414 23.009 0 30.321-29.633 9.885-40.059-5.092-2.597-15.023-2.573-19.985.05m2.704 6.275C116.061 145.871 113 150.997 113 156c0 7.576 7.275 14.946 14.79 14.984 4.644.023 10.64-3.326 13.109-7.321 4.429-7.166 1.652-16.811-5.96-20.694-5.021-2.562-9.51-2.469-14.335.297M14 199.531c0 1.943.563 3.748 1.25 4.012.688.263 20.093.362 43.123.218l41.871-.261-5.445-3.75-5.445-3.75H14v3.531m147.15.228-5.349 3.741 41.849.261c23.017.144 42.412.045 43.1-.218.687-.264 1.25-2.069 1.25-4.012V196l-37.75.009-37.75.009-5.35 3.741" fill="#212121" fill-rule="evenodd"/></svg>